name Walk10.mot
datacolumns 19
datarows 27
range 1.11500000 1.24500000
endheader

                time	   L_ground_force_vx	   L_ground_force_vy	   L_ground_force_vz	   L_ground_force_px	   L_ground_force_py	   L_ground_force_pz	   R_ground_force_vx	   R_ground_force_vy	   R_ground_force_vz	   R_ground_force_px	   R_ground_force_py	   R_ground_force_pz	   L_ground_torque_x	   L_ground_torque_y	   L_ground_torque_z	   R_ground_torque_x	   R_ground_torque_y	   R_ground_torque_z	
          1.11500000	         -9.67129400	        156.09596678	        -16.23854724	         -0.15681311	          0.00000000	          0.00162151	         -0.00000000	          0.00000000	          0.00000000	          0.00000000	          0.00000000	          0.00000000	          0.00000000	          0.13202115	          0.00000000	          0.00000000	         -0.00000000	          0.00000000	
          1.12000000	        -15.65480540	        211.93052161	        -22.11053509	         -0.19575672	          0.00000000	          0.00211977	         -0.00000000	          0.00000000	          0.00000000	          0.00000000	          0.00000000	          0.00000000	          0.00000000	          0.18073137	          0.00000000	          0.00000000	          0.00000000	          0.00000000	
          1.12500000	        -23.06258345	        272.91232108	        -28.53228694	         -0.23304447	          0.00000000	          0.00263304	         -0.00000000	          0.00000000	          0.00000000	          0.00000000	          0.00000000	          0.00000000	          0.00000000	          0.23424518	          0.00000000	          0.00000000	          0.00000000	          0.00000000	
          1.13000000	        -31.83612288	        335.00478681	        -34.97729931	         -0.26620725	          0.00000000	          0.00310110	         -0.00000000	          0.00000000	          0.00000000	          0.00000000	          0.00000000	          0.00000000	          0.00000000	          0.28865168	          0.00000000	          0.00000000	          0.00000000	          0.00000000	
          1.13500000	        -41.81303012	        393.96118624	        -40.64768028	         -0.29395333	          0.00000000	          0.00344929	         -0.00000000	          0.00000000	          0.00000000	          0.00000000	          0.00000000	          0.00000000	          0.00000000	          0.34067596	          0.00000000	          0.00000000	          0.00000000	          0.00000000	
          1.14000000	        -52.66959149	        447.02951300	        -44.68062692	         -0.31587623	          0.00000000	          0.00360349	         -0.00000000	          0.00000000	          0.00000000	          0.00000000	          0.00000000	          0.00000000	          0.00000000	          0.38868568	          0.00000000	          0.00000000	          0.00000000	          0.00000000	
          1.14500000	        -63.89820063	        493.03263095	        -46.44346307	         -0.33216898	          0.00000000	          0.00350288	         -0.00000000	          0.00000001	          0.00000000	          0.00000000	          0.00000000	          0.00000000	          0.00000000	          0.43066188	          0.00000000	          0.00000000	          0.00000000	          0.00000000	
          1.15000000	        -74.89083920	        531.76746063	        -45.68130876	         -0.34338912	          0.00000000	          0.00310839	         -0.00000000	          0.00000001	          0.00000000	          0.00000000	          0.00000000	          0.00000000	          0.00000000	          0.46263896	          0.00000000	          0.00000000	          0.00000000	          0.00000000	
          1.15500000	        -85.08828092	        563.78220282	        -42.50093996	         -0.35027827	          0.00000000	          0.00240276	         -0.00000000	          0.00000001	          0.00000000	          0.00000000	          0.00000000	          0.00000000	          0.00000000	          0.47977051	          0.00000000	          0.00000000	          0.00000000	          0.00000000	
          1.16000000	        -94.14303155	        590.31119805	        -37.25709371	         -0.35363299	          0.00000000	          0.00138633	         -0.00000000	          0.00000001	          0.00000000	          0.00000000	          0.00000000	          0.00000000	          0.00000000	          0.47853395	          0.00000000	          0.00000000	          0.00000000	          0.00000000	
          1.16500000	       -102.03000917	        613.12549408	        -30.41736014	         -0.35421901	          0.00000000	          0.00007349	         -0.00000000	          0.00000001	          0.00000000	          0.00000000	          0.00000000	          0.00000000	          0.00000000	          0.45859646	          0.00000000	          0.00000000	          0.00000000	          0.00000000	
          1.17000000	       -109.02699344	        634.26084054	        -22.47017679	         -0.35272247	          0.00000000	         -0.00151059	         -0.00000000	          0.00000000	          0.00000000	         -0.00000000	          0.00000000	         -0.00000000	          0.00000000	          0.42230929	          0.00000000	          0.00000000	          0.00000000	          0.00000000	
          1.17500000	       -115.55166656	        655.64882200	        -13.89889180	         -0.34973281	          0.00000000	         -0.00332827	         -0.00000000	         -0.00000000	         -0.00000000	         -0.00000000	          0.00000000	         -0.00000000	          0.00000000	          0.37391469	          0.00000000	          0.00000000	          0.00000000	          0.00000000	
          1.18000000	       -121.94721489	        678.79626776	         -5.18211962	         -0.34574489	          0.00000000	         -0.00532619	         -0.00000000	         -0.00000001	         -0.00000000	         -0.00000000	          0.00000000	         -0.00000000	          0.00000000	          0.31837671	          0.00000000	          0.00000000	          0.00000000	          0.00000000	
          1.18500000	       -128.34479411	        704.62341016	          3.21918905	         -0.34116874	          0.00000000	         -0.00743568	          0.00000000	         -0.00000002	         -0.00000000	         -0.00000000	          0.00000000	         -0.00000000	          0.00000000	          0.26126316	          0.00000000	          0.00000000	          0.00000000	          0.00000000	
          1.19000000	       -134.65061228	        733.42674684	         10.89682339	         -0.33633800	          0.00000000	         -0.00957669	          0.00000000	         -0.00000003	         -0.00000000	         -0.00000000	          0.00000000	         -0.00000000	          0.00000000	          0.20845963	          0.00000000	          0.00000000	         -0.00000000	          0.00000000	
          1.19500000	       -140.62889984	        764.91963727	         17.53989861	         -0.33151261	          0.00000000	         -0.01166886	          0.00000000	         -0.00000005	         -0.00000000	         -0.00000000	          0.00000000	         -0.00000000	          0.00000000	          0.16518540	          0.00000000	          0.00000000	         -0.00000000	          0.00000000	
          1.20000000	       -146.01740125	        798.35664088	         22.96992877	         -0.32687969	          0.00000000	         -0.01364445	          0.00000000	         -0.00000006	         -0.00000000	         -0.00000000	          0.00000000	         -0.00000000	          0.00000000	          0.13524175	          0.00000000	          0.00000000	         -0.00000000	          0.00000000	
          1.20500000	       -150.61175104	        832.73180339	         27.14509180	         -0.32255780	          0.00000000	         -0.01545858	          0.00000001	         -0.00000009	         -0.00000001	         -0.00000000	          0.00000000	         -0.00000000	          0.00000000	          0.12108304	          0.00000000	          0.00000000	         -0.00000000	          0.00000000	
          1.21000000	       -154.29237124	        866.97790012	         30.12963419	         -0.31860744	          0.00000000	         -0.01709017	          0.00000001	         -0.00000011	         -0.00000001	         -0.00000000	          0.00000000	         -0.00000000	          0.00000000	          0.12360476	          0.00000000	          0.00000000	         -0.00000000	          0.00000000	
          1.21500000	       -157.01392501	        900.11459764	         32.05214197	         -0.31504391	          0.00000000	         -0.01853718	          0.00000001	         -0.00000013	         -0.00000001	         -0.00000000	          0.00000000	         -0.00000000	          0.00000000	          0.14243698	          0.00000000	          0.00000000	         -0.00000000	          0.00000000	
          1.22000000	       -158.78874138	        931.33402392	         33.08007779	         -0.31184998	          0.00000000	         -0.01981220	          0.00000001	         -0.00000015	         -0.00000001	         -0.00000000	          0.00000000	         -0.00000000	          0.00000000	          0.17632775	          0.00000000	          0.00000000	         -0.00000000	          0.00000000	
          1.22500000	       -159.67591915	        960.03162063	         33.41401857	         -0.30898738	          0.00000000	         -0.02093859	          0.00000002	         -0.00000016	         -0.00000001	         -0.00000000	          0.00000000	         -0.00000000	          0.00000000	          0.22313923	          0.00000000	          0.00000000	         -0.00000000	          0.00000000	
          1.23000000	       -159.76997886	        985.80903062	         33.28573785	         -0.30640608	          0.00000000	         -0.02194585	          0.00000002	         -0.00000015	         -0.00000001	         -0.00000000	          0.00000000	         -0.00000000	          0.00000000	          0.27984521	          0.00000000	          0.00000000	         -0.00000000	          0.00000000	
          1.23500000	       -159.18192654	       1008.47019310	         32.94038708	         -0.30405221	          0.00000000	         -0.02286608	          0.00000002	         -0.00000013	         -0.00000001	         -0.00000000	          0.00000000	         -0.00000000	          0.00000000	          0.34304358	          0.00000000	          0.00000000	         -0.00000000	          0.00000000	
          1.24000000	       -158.01598898	       1028.00477734	         32.60647086	         -0.30187527	          0.00000000	         -0.02373006	          0.00000002	         -0.00000007	         -0.00000000	          0.00000000	          0.00000000	          0.00000000	          0.00000000	          0.40956161	          0.00000000	          0.00000000	         -0.00000000	          0.00000000	
          1.24500000	       -156.35237812	       1044.55496491	         32.46838450	         -0.29983244	          0.00000000	         -0.02456358	          0.00000002	          0.00000002	          0.00000001	          0.00000000	          0.00000000	          0.00000000	          0.00000000	          0.47729485	          0.00000000	          0.00000000	         -0.00000000	          0.00000000	
